<svg width="155" height="155" viewBox="0 0 155 155" fill="none" xmlns="http://www.w3.org/2000/svg">
<rect x="11.6963" y="11.6964" width="131" height="131" rx="65.5" fill="#D1FADF"/>
<rect x="11.6963" y="11.6964" width="131" height="131" rx="65.5" stroke="#ECFDF3" stroke-width="23.3929"/>
<path d="M104.488 74.6856V77.1964C104.484 83.0817 102.579 88.8082 99.0548 93.5218C95.531 98.2355 90.5778 101.684 84.9341 103.353C79.2904 105.021 73.2585 104.821 67.738 102.781C62.2174 100.742 57.5041 96.9723 54.3009 92.0351C51.0977 87.098 49.5762 81.2576 49.9635 75.3851C50.3507 69.5127 52.6258 63.9227 56.4496 59.4489C60.2734 54.9751 65.4409 51.8572 71.1814 50.5602C76.9219 49.2632 82.9279 49.8566 88.3037 52.2519M104.488 55.3631L77.196 82.6821L69.0085 74.4946" stroke="#008751" stroke-width="5.45833" stroke-linecap="round" stroke-linejoin="round"/>
</svg>
